<?xml version="1.0" encoding="UTF-8"?><svg id="b" xmlns="http://www.w3.org/2000/svg" width="57.6" height="43.29" viewBox="0 0 57.6 43.29"><g id="c"><g id="d"><path d="M16.15,28.35c-4.12,0-7.47,3.34-7.47,7.47s3.34,7.47,7.47,7.47,7.47-3.34,7.47-7.47-3.34-7.47-7.47-7.47ZM16.15,39.1c-1.81,0-3.28-1.47-3.28-3.28s1.47-3.28,3.28-3.28,3.28,1.47,3.28,3.28-1.47,3.28-3.28,3.28Z" fill="#f9893c"/><path d="M20.23,17.6l-16.7,2.98C1.46,21.15.01,23.03,0,25.19v5.42c.02,2.64,2.17,4.76,4.81,4.74h1.18c.49-5.66,5.48-9.86,11.14-9.37,4.98.43,8.94,4.38,9.37,9.37h15.27v-18.25s-1.1-.63-2.87-3.3c-1.33-2-1.42-4.98-1.42-4.98h-3.85c-2.16,0-11.26,8.53-13.39,8.79Z" fill="#f9893c"/><path d="M57.6,7.75c0-3.33-1.83-6.22-4.52-7.75l.02,7.17-4.44,2.58-4.46-2.56-.02-7.17c-2.69,1.55-4.49,4.44-4.48,7.77,0,3.49,2.02,6.5,4.93,7.97v.04s.08,23.26.08,23.26c0,1.16.48,2.22,1.24,2.99.77.76,1.82,1.23,2.99,1.23,2.32,0,4.21-1.9,4.21-4.23l-.09-23.49c2.73-1.54,4.55-4.47,4.54-7.81Z" fill="#f9893c"/></g></g></svg>
