<?xml version="1.0" encoding="UTF-8"?><svg id="b" xmlns="http://www.w3.org/2000/svg" width="43.26" height="39.14" viewBox="0 0 43.26 39.14"><g id="c"><path id="d" d="M16.89,36.72v-11.68h9.47v11.68c-.04,1.3.98,2.38,2.28,2.42.01,0,.02,0,.04,0h7.05c1.3-.02,2.34-1.08,2.32-2.38,0-.01,0-.03,0-.04v-16.42h4.07c.67-.05,1.18-.63,1.13-1.31-.02-.3-.15-.58-.36-.79L23.17.58c-.88-.77-2.2-.77-3.09,0L.37,18.21c-.48.47-.49,1.25-.01,1.73.21.21.49.34.79.36h4.08v16.42c-.04,1.3.98,2.38,2.28,2.42,0,0,.02,0,.03,0h7.04c1.3-.02,2.34-1.08,2.32-2.38,0-.01,0-.03,0-.04Z" fill="#f9893c"/></g></svg>
