<?xml version="1.0" encoding="utf-8"?>
<!-- Generator: Adobe Illustrator 23.0.1, SVG Export Plug-In . SVG Version: 6.00 Build 0)  -->
<svg version="1.1" id="py" xmlns="http://www.w3.org/2000/svg" xmlns:xlink="http://www.w3.org/1999/xlink" x="0px" y="0px"
	 viewBox="0 0 600 330" style="enable-background:new 0 0 600 330;" xml:space="preserve">
<style type="text/css">
	.st0{fill:#0038A8;}
	.st1{fill:#FFFFFF;}
	.st2{fill:#D52B1E;}
	.st3{fill:none;stroke:#000000;stroke-width:1.0759;}
	.st4{fill:none;stroke:#000000;stroke-width:0.4782;}
	.st5{fill:none;stroke:#000000;stroke-width:0.4382;}
	.st6{fill:#009B3A;stroke:#000000;stroke-width:0.1;}
	.st7{fill:#FEDF00;stroke:#000000;stroke-width:0.2988;}
</style>
<path class="st0" d="M0,0h600v330H0V0z"/>
<path class="st1" d="M0,0h600v220H0V0z"/>
<path class="st2" d="M0,0h600v110H0V0z"/>
<g>
	<circle class="st3" cx="300" cy="165" r="42.2"/>
	<circle class="st4" cx="300" cy="165" r="34.7"/>
	<circle class="st5" cx="300" cy="165" r="26.6"/>
</g>
<path d="M277.5,181.3l-4.9,2.9l-1.5-2.5c-0.3-0.5-0.4-0.8-0.5-1.1c-0.1-0.3,0-0.6,0.1-0.9c0.1-0.3,0.3-0.5,0.7-0.7
	c0.3-0.2,0.5-0.2,0.8-0.2c0.3,0,0.5,0.1,0.8,0.2c0.2,0.1,0.3,0.2,0.5,0.4c0-0.2-0.1-0.4-0.1-0.5c0-0.1,0-0.2,0.1-0.4
	c0.1-0.2,0.1-0.3,0.2-0.4l1-1.6l1,1.7l-1,1.7c-0.1,0.2-0.2,0.4-0.2,0.5c0,0.2,0,0.3,0.1,0.4l0.1,0.1l2-1.2L277.5,181.3z
	 M273.7,181.5l-0.4-0.6c0-0.1-0.1-0.2-0.3-0.4c-0.1-0.1-0.2-0.1-0.3-0.2c-0.1,0-0.2,0-0.3,0.1c-0.2,0.1-0.2,0.2-0.3,0.4
	s0,0.4,0.2,0.6l0.4,0.7L273.7,181.5z"/>
<path d="M269.1,177.7l-1.5-4.5l1.2-0.4l0.9,2.8l0.9-0.3l-0.9-2.6l1.1-0.4l0.9,2.6l1.1-0.4l-1-2.9l1.2-0.4l1.5,4.6L269.1,177.7z"/>
<path d="M267.2,171.1l-0.3-2.9c-0.1-0.6,0-1.1,0.3-1.5c0.3-0.3,0.7-0.6,1.2-0.6c0.6-0.1,1,0.1,1.4,0.4c0.4,0.3,0.6,0.8,0.7,1.5
	l0.1,1l2.1-0.2l0.2,1.8L267.2,171.1z M269.4,169l0-0.4c0-0.3-0.1-0.6-0.3-0.7c-0.1-0.1-0.3-0.2-0.5-0.2c-0.2,0-0.3,0.1-0.4,0.2
	c-0.1,0.1-0.1,0.4-0.1,0.7l0.1,0.5L269.4,169z"/>
<path d="M267,160.4l0.2-1.7l3.4,0.4c0.3,0,0.6,0.1,0.9,0.3s0.5,0.3,0.7,0.6s0.3,0.5,0.4,0.8c0.1,0.4,0.1,0.8,0.1,1.2
	c0,0.3-0.1,0.6-0.2,0.9c-0.1,0.3-0.2,0.6-0.3,0.8c-0.1,0.2-0.3,0.4-0.6,0.5s-0.5,0.3-0.7,0.3c-0.4,0.1-0.7,0.1-1,0.1l-3.4-0.4
	l0.2-1.7l3.5,0.4c0.3,0,0.6,0,0.8-0.2c0.2-0.2,0.3-0.4,0.3-0.7c0-0.3,0-0.5-0.2-0.7c-0.2-0.2-0.4-0.3-0.7-0.3L267,160.4z"/>
<path d="M267.7,156.2l1.1-3.1c0.2-0.5,0.4-0.9,0.8-1.1c0.4-0.2,0.7-0.2,1.1-0.1c0.3,0.1,0.6,0.3,0.7,0.6c0.1,0.2,0.2,0.4,0.2,0.7
	c0.2-0.4,0.5-0.6,0.8-0.7s0.6-0.1,0.9,0c0.3,0.1,0.5,0.2,0.7,0.5c0.2,0.2,0.3,0.4,0.3,0.7c0,0.2,0,0.4,0,0.7
	c-0.1,0.4-0.1,0.6-0.2,0.8l-1,2.9L267.7,156.2z M270.4,155.3l0.3-0.7c0.1-0.3,0.1-0.5,0.1-0.6c-0.1-0.1-0.2-0.2-0.3-0.3
	c-0.2-0.1-0.3,0-0.4,0s-0.2,0.2-0.3,0.5l-0.3,0.7L270.4,155.3z M272.5,156l0.3-0.8c0.1-0.3,0.1-0.5,0.1-0.7
	c-0.1-0.2-0.2-0.3-0.3-0.3c-0.2-0.1-0.3,0-0.4,0s-0.3,0.3-0.4,0.6l-0.3,0.8L272.5,156z"/>
<path d="M270.4,149.4l0.9-1.5l3.7,2.2l1.4-2.3l1.2,0.7l-2.3,3.9L270.4,149.4z"/>
<path d="M273.9,144.2l1.1-1.4l4.4,3.6l-1.1,1.4L273.9,144.2z"/>
<path d="M281.5,141.2l1.5-0.7c0.2,0.4,0.3,0.8,0.3,1.1c0,0.4,0,0.7-0.2,1c-0.2,0.3-0.4,0.7-0.8,1c-0.5,0.4-0.9,0.7-1.3,0.8
	c-0.4,0.1-0.9,0.1-1.4-0.1c-0.5-0.2-1-0.5-1.5-1c-0.6-0.7-0.9-1.4-0.8-2.1c0.1-0.7,0.4-1.4,1.1-2c0.5-0.5,1.1-0.7,1.6-0.8
	c0.5,0,1,0.1,1.6,0.4l-1,1.3c-0.2-0.1-0.3-0.2-0.4-0.2c-0.2,0-0.3,0-0.5,0c-0.2,0-0.3,0.1-0.4,0.2c-0.3,0.3-0.4,0.6-0.4,1
	c0,0.3,0.2,0.6,0.5,1c0.4,0.5,0.8,0.7,1.1,0.8c0.3,0.1,0.6,0,0.8-0.3c0.3-0.2,0.4-0.5,0.4-0.7C281.8,141.8,281.7,141.5,281.5,141.2
	L281.5,141.2z"/>
<path d="M287.6,139l-1.8,0.9l0.2,1l-1.6,0.8l-0.8-6l1.7-0.9l4.6,4l-1.6,0.9L287.6,139z M286.7,138.1l-1.5-1.5l0.4,2.1L286.7,138.1z"
	/>
<path d="M292,132.3l2.6-0.4c0.5-0.1,0.9-0.1,1.3,0c0.3,0.1,0.6,0.2,0.9,0.5c0.2,0.2,0.4,0.5,0.6,0.8c0.2,0.3,0.3,0.7,0.3,1.1
	c0.1,0.6,0.1,1.1,0,1.4c-0.1,0.4-0.2,0.7-0.4,0.9c-0.2,0.3-0.4,0.5-0.7,0.6c-0.4,0.2-0.7,0.3-1,0.3l-2.6,0.4L292,132.3z M294,133.3
	l0.5,3.1l0.4-0.1c0.4-0.1,0.6-0.1,0.8-0.3s0.2-0.3,0.3-0.5c0.1-0.2,0-0.5,0-1c-0.1-0.6-0.3-1-0.5-1.2c-0.2-0.2-0.6-0.2-1-0.2
	L294,133.3z"/>
<path d="M299.4,131.3l4.7,0.2l-0.1,1.2l-2.9-0.1l0,0.9l2.7,0.1l0,1.2l-2.7-0.1l0,1.1l3,0.1l-0.1,1.3l-4.8-0.2L299.4,131.3z"/>
<path d="M306.2,131.9l1.7,0.4l-1,4.2l2.7,0.7l-0.3,1.4l-4.4-1.1L306.2,131.9z"/>
<path d="M315.3,134.9l2.5,1.5c0.5,0.3,0.9,0.7,1,1.1c0.1,0.4,0,0.9-0.2,1.4c-0.3,0.5-0.7,0.8-1.1,0.9c-0.5,0.1-1,0-1.6-0.4l-0.8-0.5
	l-1.1,1.8l-1.5-0.9L315.3,134.9z M315.6,137.9l0.4,0.2c0.3,0.2,0.5,0.2,0.7,0.2c0.2,0,0.3-0.1,0.4-0.3c0.1-0.2,0.1-0.3,0.1-0.5
	c0-0.2-0.2-0.3-0.5-0.5l-0.4-0.3L315.6,137.9z"/>
<path d="M320.6,144.5l-1.5-1.4l-0.8,0.5l-1.3-1.2l5.4-2.7l1.4,1.3l-2.3,5.6l-1.3-1.3L320.6,144.5z M321.1,143.4l0.9-1.9l-1.9,1.1
	L321.1,143.4z"/>
<path d="M321.8,147.1l4.7-3.2l1.7,2.4c0.3,0.4,0.5,0.8,0.6,1.1c0.1,0.3,0.1,0.6,0,0.9c-0.1,0.3-0.3,0.5-0.6,0.7
	c-0.3,0.2-0.5,0.3-0.8,0.3c-0.3,0-0.5,0-0.8-0.1c-0.2-0.1-0.3-0.2-0.5-0.4c0.1,0.2,0.1,0.4,0.1,0.5c0,0.1,0,0.2-0.1,0.4
	c-0.1,0.2-0.1,0.3-0.2,0.4l-0.9,1.6l-1.1-1.6l0.9-1.8c0.1-0.2,0.2-0.4,0.2-0.5c0-0.2,0-0.3-0.1-0.4l-0.1-0.1l-1.9,1.3L321.8,147.1z
	 M325.6,146.7l0.4,0.6c0,0.1,0.2,0.2,0.3,0.3c0.1,0.1,0.2,0.1,0.3,0.1c0.1,0,0.2,0,0.3-0.1c0.2-0.1,0.2-0.2,0.3-0.4
	s-0.1-0.4-0.2-0.6l-0.4-0.6L325.6,146.7z"/>
<path d="M327.4,155.2l-0.7-1.9l-1,0.1l-0.7-1.7l6.1-0.1l0.7,1.8l-4.5,4.1l-0.7-1.7L327.4,155.2z M328.4,154.4l1.7-1.3l-2.1,0.2
	L328.4,154.4z"/>
<path d="M329.9,160.6l1.2-0.2l0.4,2.7l-2.4,0.4c-0.4-0.5-0.7-0.9-0.9-1.3c-0.2-0.4-0.3-0.8-0.4-1.4c-0.1-0.7-0.1-1.2,0.1-1.7
	c0.2-0.5,0.5-0.8,0.9-1.1s0.9-0.5,1.5-0.6c0.6-0.1,1.2,0,1.7,0.1c0.5,0.2,0.9,0.5,1.2,1c0.2,0.4,0.4,0.9,0.5,1.5
	c0.1,0.6,0.1,1.1,0,1.4c-0.1,0.3-0.2,0.6-0.4,0.8c-0.2,0.2-0.5,0.4-0.8,0.6l-0.6-1.6c0.2-0.1,0.3-0.2,0.4-0.4
	c0.1-0.2,0.1-0.4,0.1-0.7c-0.1-0.4-0.2-0.7-0.5-0.9c-0.3-0.2-0.7-0.2-1.3-0.2c-0.6,0.1-1,0.3-1.3,0.5c-0.2,0.3-0.3,0.6-0.2,1
	c0,0.2,0.1,0.4,0.2,0.5c0.1,0.2,0.2,0.4,0.4,0.6l0.5-0.1L329.9,160.6z"/>
<path d="M333.6,168.9l-0.2,1.7l-3.4-0.3c-0.3,0-0.6-0.1-0.9-0.2c-0.3-0.1-0.5-0.3-0.7-0.6c-0.2-0.2-0.3-0.5-0.4-0.7
	c-0.1-0.4-0.1-0.8-0.1-1.2c0-0.3,0.1-0.6,0.1-0.9c0.1-0.3,0.2-0.6,0.3-0.8s0.3-0.4,0.5-0.6c0.2-0.2,0.5-0.3,0.7-0.3
	c0.4-0.1,0.7-0.1,1-0.1l3.4,0.3l-0.2,1.7l-3.5-0.3c-0.3,0-0.6,0-0.7,0.2c-0.2,0.2-0.3,0.4-0.3,0.7c0,0.3,0,0.5,0.2,0.7
	c0.2,0.2,0.4,0.3,0.7,0.3L333.6,168.9z"/>
<path d="M327.3,174.9l0.6-1.9l-0.8-0.6l0.6-1.7l4.7,3.8l-0.6,1.8l-6.1,0.3l0.6-1.7L327.3,174.9z M328.6,174.9l2.1,0l-1.7-1.2
	L328.6,174.9z"/>
<path d="M330.6,179.6l-1,1.7l-2.2,0l1.1,2l-1,1.7l-1.7-3.6l-2-1.2l0.9-1.5l2,1.2L330.6,179.6z"/>
<g>
	<g>
		<path class="st6" d="M305.6,145.3c0,0,16.1,6.9,13.2,21.2s-11.7,14.2-15.2,15.8c-3.5,1.6-5.9,3.8-7.3,3.5
			c-1.4-0.3-3.2-1.4-3.2-1.4s-0.1,2.3,2.7,2.8s6.5-3.7,8.3-4.2c1.8-0.5,12.7-1.6,15.3-16.2C322.5,151.3,305.7,145.8,305.6,145.3
			L305.6,145.3z"/>
		<path class="st6" d="M313.7,148.3c0.3,1.2,0.3,2.1,0,2.2c-0.3,0-0.8-0.9-1.1-2.1c-0.3-1.2-0.3-2.2,0-2.2
			C312.9,146.2,313.4,147.1,313.7,148.3C313.7,148.3,313.7,148.3,313.7,148.3z"/>
		<path class="st6" d="M313.1,148.5c0.6,1.1,0.8,2.1,0.5,2.2c-0.3,0.1-0.9-0.7-1.5-1.8c0,0,0,0,0,0c-0.6-1.1-0.8-2.1-0.5-2.2
			C311.9,146.6,312.6,147.4,313.1,148.5z"/>
		<path class="st6" d="M311.5,149.6c1.1,0.3,2,0.8,2,1.1c0,0.3-1,0.3-2.1-0.1c-1.1-0.3-2-0.8-2-1.1
			C309.5,149.2,310.4,149.2,311.5,149.6z"/>
		<path class="st6" d="M311.8,149c1,0.7,1.8,1.5,1.7,1.7c-0.1,0.3-1.1-0.1-2.1-0.8c0,0,0,0,0,0c-1-0.7-1.8-1.5-1.7-1.7
			S310.7,148.3,311.8,149C311.8,149,311.8,149,311.8,149z"/>
		<path class="st6" d="M312.4,148.7c0.9,0.9,1.4,1.8,1.2,2c-0.2,0.2-1.1-0.4-1.9-1.3c0,0,0,0,0,0c-0.9-0.9-1.4-1.8-1.2-2
			C310.7,147.2,311.6,147.8,312.4,148.7z"/>
		<path class="st6" d="M313.6,150.7c0,0-0.6,0.3-0.8,0.4c-0.1,0.1-0.3-0.2-0.7,0c-0.4,0.2-0.7,0.6-0.8,0.8c-0.1,0.2,0.1,0.3,0.6,0.1
			c0.5-0.2,0.6-0.6,0.9-0.8C313,151.1,313.4,150.9,313.6,150.7c0.2-0.1,0.5-0.6,0.6-0.8c0.2-0.3,0.8-0.7,1.1-1.2
			c0.2-0.4,0.1-0.8-0.1-0.6c-0.3,0.1-0.6,0.6-0.8,0.9c-0.2,0.3,0,0.7-0.2,1C313.9,150.1,313.6,150.7,313.6,150.7L313.6,150.7z"/>
		<path class="st6" d="M318.5,152.3c0,1.8-0.3,3.2-0.7,3.1c-0.4-0.1-0.8-1.7-0.8-3.5s0.3-3.2,0.7-3.1
			C318.1,149,318.5,150.5,318.5,152.3L318.5,152.3z"/>
		<path class="st6" d="M317.7,152.3c0.4,1.9,0.4,3.4,0,3.4c-0.4,0-1-1.5-1.4-3.3c0,0,0,0,0,0c-0.4-1.9-0.4-3.4,0-3.4
			C316.7,148.9,317.3,150.4,317.7,152.3C317.7,152.3,317.7,152.3,317.7,152.3z"/>
		<path class="st6" d="M315.1,153.1c1.5,1,2.6,2.1,2.4,2.5c-0.1,0.4-1.4,0-2.9-1c0,0,0,0,0,0c-1.5-1-2.6-2.1-2.4-2.5
			C312.3,151.6,313.6,152.1,315.1,153.1C315.1,153.1,315.1,153.1,315.1,153.1z"/>
		<path class="st6" d="M315.6,152.4c1.2,1.5,2,2.9,1.7,3.2c-0.3,0.3-1.4-0.6-2.6-2.1c-1.2-1.5-2-2.9-1.7-3.2
			C313.2,150,314.4,150.9,315.6,152.4C315.6,152.4,315.6,152.4,315.6,152.4z"/>
		<path class="st6" d="M316.7,152.3c0.9,1.7,1.4,3.2,1.1,3.4c-0.3,0.2-1.3-1-2.3-2.7c0,0,0,0,0,0c-0.9-1.7-1.4-3.2-1.1-3.4
			C314.8,149.3,315.8,150.6,316.7,152.3C316.7,152.3,316.7,152.3,316.7,152.3z"/>
		<path class="st6" d="M317.6,155.7c0,0-1,0.2-1.2,0.2c-0.2,0-0.4-0.4-1-0.3c-0.6,0.1-1.2,0.5-1.4,0.8c-0.2,0.3,0.1,0.5,0.8,0.4
			c0.8-0.1,1.1-0.6,1.5-0.7c0.4-0.1,1-0.2,1.3-0.3c0.2-0.3,0.8-0.8,1.1-1.1c0.3-0.3,1.4-0.6,1.9-1.3c0.4-0.5,0.4-1.1,0-1
			c-0.4,0.1-1.1,0.5-1.4,0.9c-0.3,0.4-0.3,1-0.6,1.3C318.3,154.9,317.6,155.7,317.6,155.7L317.6,155.7z"/>
		<path class="st6" d="M321.1,159c-0.3,1.8-0.9,3.1-1.2,2.9s-0.5-1.8-0.1-3.6l0,0c0.3-1.8,0.9-3.1,1.2-2.9
			C321.4,155.6,321.4,157.2,321.1,159z"/>
		<path class="st6" d="M320.4,158.8c0.1,1.9-0.2,3.4-0.6,3.4c-0.4,0-0.8-1.6-0.8-3.5c0,0,0,0,0,0c-0.1-1.9,0.2-3.4,0.6-3.4
			S320.3,156.8,320.4,158.8C320.3,158.8,320.3,158.8,320.4,158.8z"/>
		<path class="st6" d="M317.7,159.1c1.3,1.3,2.1,2.6,1.9,3s-1.4-0.3-2.7-1.6l0,0c-1.3-1.3-2.1-2.6-1.9-3
			C315.2,157.1,316.4,157.8,317.7,159.1z"/>
		<path class="st6" d="M318.3,158.5c0.9,1.7,1.4,3.2,1.1,3.5c-0.3,0.3-1.3-0.9-2.2-2.6c-0.9-1.7-1.4-3.2-1.1-3.5
			C316.4,155.7,317.4,156.8,318.3,158.5C318.3,158.5,318.3,158.5,318.3,158.5z"/>
		<path class="st6" d="M319.4,158.6c0.6,1.9,0.8,3.5,0.4,3.6c-0.4,0.1-1.1-1.2-1.7-3.1c0,0,0,0,0-0.1c-0.6-1.9-0.8-3.5-0.4-3.6
			C318,155.3,318.7,156.7,319.4,158.6C319.3,158.5,319.3,158.6,319.4,158.6z"/>
		<path class="st6" d="M319.6,162.1c0,0-1,0-1.2,0c-0.2,0-0.3-0.5-1-0.5c-0.6,0-1.2,0.3-1.5,0.6c-0.2,0.2,0,0.5,0.7,0.5
			c0.8,0,1.2-0.4,1.5-0.4c0.4,0,1,0,1.4,0c0.3-0.2,0.9-0.6,1.3-0.9c0.4-0.2,1.4-0.4,2-0.9c0.5-0.4,0.6-1,0.2-1
			c-0.4,0-1.1,0.3-1.5,0.6c-0.4,0.3-0.4,0.9-0.8,1.2C320.5,161.5,319.7,162.1,319.6,162.1"/>
		<path class="st6" d="M321.3,166.4c-1,1.5-2,2.5-2.3,2.2c-0.3-0.3,0.3-1.8,1.3-3.4l0,0c1-1.5,2-2.5,2.3-2.2
			C322.9,163.4,322.3,164.9,321.3,166.4"/>
		<path class="st6" d="M320.7,165.9c-0.7,1.8-1.5,3.1-1.9,2.9c-0.3-0.2,0-1.8,0.7-3.6l0,0c0.7-1.8,1.5-3.1,1.9-2.9
			C321.7,162.5,321.4,164.1,320.7,165.9"/>
		<path class="st6" d="M318.2,165.1c0.6,1.7,0.9,3.3,0.6,3.5c-0.3,0.3-1.1-0.9-1.8-2.6l0,0c-0.6-1.7-0.9-3.3-0.6-3.5
			C316.7,162.3,317.5,163.4,318.2,165.1"/>
		<path class="st6" d="M319,164.8c0.2,1.9,0,3.6-0.4,3.7c-0.4,0.1-0.8-1.4-1-3.3c-0.2-1.9,0-3.6,0.4-3.7S318.8,162.8,319,164.8
			C319,164.8,319,164.8,319,164.8"/>
		<path class="st6" d="M319.9,165.3c-0.2,2-0.6,3.5-1,3.5s-0.5-1.6-0.3-3.6l0,0c0.2-2,0.6-3.5,1-3.5S320.1,163.3,319.9,165.3
			L319.9,165.3"/>
		<path class="st6" d="M318.8,168.7c0,0-0.9-0.4-1.1-0.5c-0.2-0.1-0.1-0.6-0.7-0.9c-0.6-0.3-1.2-0.2-1.5-0.1
			c-0.3,0.1-0.2,0.5,0.5,0.8c0.7,0.3,1.2,0.1,1.6,0.2c0.4,0.1,0.9,0.4,1.2,0.6c0.3-0.1,1.1-0.2,1.5-0.3c0.4-0.1,1.5,0.3,2.2,0
			c0.6-0.2,0.9-0.6,0.5-0.8s-1.2-0.2-1.6-0.1c-0.5,0.1-0.7,0.7-1.2,0.7C319.8,168.5,318.8,168.7,318.8,168.7"/>
		<path class="st6" d="M319.3,173.9c-1.6,1.4-3,2.1-3.2,1.6c-0.2-0.5,0.9-1.9,2.5-3.3c1.6-1.4,3-2.1,3.2-1.6
			C322,171.1,320.9,172.6,319.3,173.9L319.3,173.9"/>
		<path class="st6" d="M318.8,173.2c-1.4,1.7-2.7,2.8-3,2.5c-0.3-0.4,0.6-2.1,1.9-3.8c1.4-1.7,2.7-2.8,3-2.5
			S320.1,171.4,318.8,173.2L318.8,173.2"/>
		<path class="st6" d="M316.3,171.3c0.2,2.1-0.1,3.9-0.5,4.1c-0.5,0.2-1-1.4-1.1-3.5c0,0,0,0,0,0c-0.2-2.1,0.1-3.9,0.5-4.1
			C315.6,167.7,316.1,169.2,316.3,171.3C316.3,171.3,316.3,171.3,316.3,171.3"/>
		<path class="st6" d="M317.3,171.3c-0.4,2.2-1.2,3.9-1.6,3.9c-0.4,0-0.5-1.8,0-4c0.4-2.2,1.2-4,1.6-3.9S317.7,169.1,317.3,171.3"/>
		<path class="st6" d="M318.1,172.2c-0.9,2.1-1.9,3.7-2.3,3.5c-0.4-0.2,0-2,0.8-4.1c0,0,0,0,0,0c0.9-2.1,1.9-3.7,2.3-3.5
			C319.3,168.2,319,170,318.1,172.2C318.1,172.2,318.1,172.2,318.1,172.2"/>
		<path class="st6" d="M315.8,175.5c0,0-0.9-0.7-1-0.9s0.1-0.7-0.5-1.2c-0.5-0.5-1.3-0.7-1.7-0.7c-0.4,0-0.4,0.4,0.2,1
			c0.6,0.6,1.3,0.6,1.6,0.8c0.4,0.3,0.9,0.8,1.2,1.1c0.4,0,1.2,0.2,1.7,0.3c0.5,0.1,1.5,0.8,2.4,0.8c0.7,0,1.2-0.4,0.9-0.7
			c-0.4-0.3-1.2-0.6-1.8-0.7c-0.5,0-1,0.5-1.6,0.4C316.9,175.7,315.8,175.6,315.8,175.5"/>
		<path class="st6" d="M314.2,180.5c-2.3,0.4-4.1,0.2-4-0.3c0-0.5,1.9-1.3,4.2-1.7c0,0,0,0,0.1,0c2.3-0.4,4.1-0.2,4,0.3
			C318.4,179.4,316.5,180.2,314.2,180.5C314.2,180.5,314.2,180.5,314.2,180.5"/>
		<path class="st6" d="M314.1,179.5c-2.3,0.9-4.1,1.1-4.2,0.6c-0.1-0.5,1.7-1.6,3.9-2.5c2.3-0.9,4.1-1.1,4.2-0.6
			C318.1,177.5,316.3,178.6,314.1,179.5C314.1,179.5,314.1,179.5,314.1,179.5"/>
		<path class="st6" d="M312.7,176.3c-1,2.1-2.2,3.7-2.8,3.6c-0.5-0.1-0.2-1.9,0.8-4l0,0c1-2.1,2.2-3.7,2.8-3.6
			S313.6,174.2,312.7,176.3"/>
		<path class="st6" d="M313.7,176.8c-1.6,1.8-3.3,3.1-3.7,2.8c-0.4-0.3,0.5-2,2.2-3.8s3.3-3.1,3.7-2.8
			C316.3,173.3,315.3,175,313.7,176.8L313.7,176.8"/>
		<path class="st6" d="M314,178.1c-2,1.5-3.8,2.4-4.1,2c-0.3-0.4,1-1.9,3-3.4c0,0,0,0,0,0c2-1.5,3.8-2.4,4.1-2
			C317.3,175.1,315.9,176.6,314,178.1"/>
		<path class="st6" d="M309.9,179.9c0,0-0.4-1.2-0.5-1.5c0-0.3,0.5-0.6,0.2-1.4c-0.3-0.8-0.9-1.4-1.2-1.6c-0.4-0.2-0.6,0.2-0.3,1.1
			c0.3,1,0.9,1.3,1.1,1.7c0.2,0.5,0.5,1.3,0.5,1.7c0.4,0.2,1.1,0.9,1.5,1.2c0.4,0.4,1,1.6,1.9,2.2c0.7,0.5,1.4,0.4,1.2-0.2
			c-0.2-0.5-0.8-1.3-1.3-1.6c-0.5-0.4-1.3-0.2-1.7-0.5C310.9,180.8,309.9,180,309.9,179.9"/>
		<path class="st6" d="M307.4,184.2c-2.3,0-4.2-0.5-4.2-1.2c0-0.7,1.9-1.2,4.2-1.3c2.3,0,4.2,0.5,4.2,1.2
			C311.6,183.6,309.7,184.2,307.4,184.2"/>
		<path class="st6" d="M306.8,180.4c-1.5,1.9-3.1,3.1-3.6,2.7c-0.5-0.4,0.3-2.3,1.8-4.2l0,0c1.5-1.9,3.1-3.1,3.6-2.7
			C309.1,176.7,308.3,178.5,306.8,180.4"/>
		<path class="st6" d="M307.4,182.4c-2.2,0.9-4.1,1.2-4.4,0.6s1.3-1.9,3.5-2.8c2.2-0.9,4.1-1.2,4.4-0.6
			C311.2,180.2,309.6,181.4,307.4,182.4L307.4,182.4"/>
		<path class="st6" d="M308.6,145.7c1.1,1,1.7,1.9,1.4,2c-0.3,0.1-1.4-0.5-2.4-1.5c-1.1-1-1.7-1.9-1.4-2
			C306.4,144,307.5,144.7,308.6,145.7C308.6,145.7,308.6,145.7,308.6,145.7"/>
		<path class="st6" d="M307.3,146.8c1.5,0.2,2.7,0.6,2.7,0.9c0.1,0.3-1.1,0.4-2.5,0.2s-2.7-0.6-2.7-0.9S305.8,146.6,307.3,146.8
			L307.3,146.8"/>
		<path class="st6" d="M307.8,146.1c1.4,0.7,2.4,1.5,2.2,1.7c-0.1,0.2-1.4-0.1-2.7-0.8l0,0c-1.4-0.7-2.4-1.5-2.2-1.7
			C305.2,145,306.4,145.4,307.8,146.1"/>
		<path class="st6" d="M288.8,180.1c0,0,3.5,0.8,6.6,1.9c3.1,1.1,7.7,5,9,5.2c1.4,0.1,3.4-0.4,4.1-2.4c-2.2,0.6-3.5,1.5-5.5,0.3
			c-0.7-0.3-3.1-2.5-5.8-3.6s-7.9-2.5-7.9-2.5L288.8,180.1"/>
		<path class="st6" d="M292.6,148.2c0,0,4.1-2.1,4.1-2.1l-4.5,1.1l-0.5,0.8L292.6,148.2"/>
		<path class="st6" d="M296.4,149.1c-1.6-0.3-4-0.8-5.5-0.9c1.1-1.2,2.5-3.2,3.4-4.4c-0.6,1.2-1.5,2.7-1.9,3.8
			C293.5,148.2,295.2,148.7,296.4,149.1"/>
		<path class="st6" d="M291.8,148.4c0,0,3.6-2.8,3.6-2.8l-4.2,1.9l-0.4,0.9L291.8,148.4"/>
		<path class="st6" d="M295.7,149.1c-1.6-0.3-4-0.9-5.6-1c1-1.2,2.5-3.3,3.4-4.5c-0.6,1.2-1.5,2.8-1.8,4
			C292.7,148.1,294.5,148.6,295.7,149.1"/>
		<path class="st6" d="M291.2,148.6c0,0,4.3-1.8,4.3-1.8l-4.6,0.8l-0.6,0.7L291.2,148.6"/>
		<path class="st6" d="M295.2,149.1c-1.6-0.1-4.1-0.4-5.6-0.4c0.9-1.4,2.1-3.6,2.8-5c-0.4,1.3-1.1,3-1.4,4.2
			C292.2,148.5,293.9,148.8,295.2,149.1"/>
		<path class="st6" d="M290.8,148.7c0,0,2.9-3.5,2.9-3.5l-3.7,2.7l-0.2,0.9L290.8,148.7"/>
		<path class="st6" d="M295.2,149.4c-1.7,0-4.4-0.2-6,0c0.8-1.5,1.8-4.1,2.5-5.6c-0.3,1.4-0.9,3.4-1,4.7
			C291.9,148.9,293.8,149.1,295.2,149.4"/>
		<path class="st6" d="M290.2,149.5c0,0,3.5-3.4,3.5-3.4l-4.2,2.3l-0.3,1L290.2,149.5"/>
		<path class="st6" d="M294.4,149.5c-1.8,0-4.7-0.1-6.5,0.1c1.2-1.7,2.8-4.5,3.8-6.3c-0.7,1.6-1.7,3.7-2.1,5.2
			C291,149,293,149.2,294.4,149.5"/>
		<path class="st6" d="M289,149.7c0,0,4.5-3.8,4.5-3.8l-5.1,2.7l-0.5,1.1L289,149.7"/>
		<path class="st6" d="M293.8,149.6c-1.8,0.3-4.7,0.6-6.4,1c0.9-1.8,2.2-4.8,2.9-6.6c-0.4,1.6-1.1,3.9-1.3,5.4
			C290.3,149.6,292.3,149.5,293.8,149.6"/>
		<path class="st6" d="M288.4,150.5c0,0,3.4-4.8,3.4-4.8l-4.3,3.9l-0.2,1.2L288.4,150.5"/>
		<path class="st6" d="M292.7,150.2c-1.8,0.2-4.7,0.3-6.5,0.7c1-1.8,2.4-4.7,3.3-6.5c-0.5,1.6-1.4,3.8-1.6,5.3
			C289.3,150,291.3,150,292.7,150.2"/>
		<path class="st6" d="M287.8,151c0,0,4.4-3.8,4.4-3.8l-5,2.7l-0.5,1.1L287.8,151"/>
		<path class="st6" d="M292.2,150.4c-1.8,0.4-4.7,0.9-6.4,1.4c0.9-1.9,1.9-4.9,2.6-6.8c-0.3,1.6-1,3.9-1.1,5.4
			C288.7,150.6,290.7,150.4,292.2,150.4"/>
		<path class="st6" d="M287.1,151.2c0,0,2.8-5.2,2.8-5.2l-3.8,4.5l-0.1,1.2L287.1,151.2"/>
		<path class="st6" d="M292.2,150.7c-2,0.5-5,1.2-6.9,1.9c0.7-2.1,1.5-5.6,2-7.7c-0.2,1.9-0.6,4.4-0.5,6
			C288.4,151.1,290.6,150.7,292.2,150.7"/>
		<path class="st6" d="M286.5,152.4c0,0,3.5-5.2,3.5-5.2l-4.5,4.2l-0.2,1.3L286.5,152.4"/>
		<path class="st6" d="M291.4,151.3c-1.9,0.6-5,1.4-6.8,2.2c0.6-2.1,1.3-5.6,1.7-7.7c-0.1,1.8-0.4,4.4-0.2,6
			C287.6,151.9,289.8,151.4,291.4,151.3"/>
		<path class="st6" d="M285.8,153.2c0,0,2.7-5.8,2.7-5.8l-3.8,5l0,1.3L285.8,153.2"/>
		<path class="st6" d="M290.7,152c-2,0.5-5.1,1-7,1.7c0.8-2.1,1.8-5.4,2.4-7.5c-0.3,1.8-0.8,4.3-0.8,6
			C286.8,152.4,289.1,152.1,290.7,152"/>
		<path class="st6" d="M285.2,153.7c0,0,4.4-4.5,4.4-4.5l-5.2,3.3l-0.4,1.3L285.2,153.7"/>
		<path class="st6" d="M289.8,152.8c-2,0.3-5,0.5-6.9,1c0.9-2,2.1-5.4,2.8-7.4c-0.4,1.8-1,4.3-1.1,6
			C286,152.8,288.2,152.7,289.8,152.8"/>
		<path class="st6" d="M284.3,153.3c0,0,3-5.6,3-5.6l-4,4.7l-0.1,1.3L284.3,153.3"/>
		<path class="st6" d="M290,152.1c-2.1,0.9-5.5,2.1-7.5,3.2c0.7-2.5,1.3-6.6,1.8-9c-0.1,2.1-0.4,5.1-0.2,7
			C285.8,153.2,288.3,152.5,290,152.1"/>
		<path class="st6" d="M283.9,155c0,0,3.6-6.5,3.6-6.5l-4.7,5.5l-0.1,1.5L283.9,155"/>
		<path class="st6" d="M289.2,152.9c-2.1,1-5.4,2.4-7.3,3.6c0.5-2.5,1.1-6.5,1.4-9c0,2.1-0.1,5,0.1,6.9
			C285.1,154.2,287.4,153.4,289.2,152.9"/>
		<path class="st6" d="M283.2,155.9c0,0,2.6-7,2.6-7l-3.9,6.2l0.1,1.5L283.2,155.9"/>
		<path class="st6" d="M288.3,153.5c-2.1,1-5.4,2.4-7.3,3.6c0.5-2.5,1-6.5,1.3-9c0,2.1-0.1,5,0.2,6.9
			C284.2,154.8,286.5,154,288.3,153.5"/>
		<path class="st6" d="M282.6,156.8c0,0,4-6.1,4-6.1l-5.1,5l-0.2,1.5L282.6,156.8"/>
		<path class="st6" d="M288.1,153.2c-1.9,1.5-4.8,3.7-6.5,5.3c0-2.6-0.3-6.5-0.6-8.9c0.5,2,0.9,4.8,1.6,6.5
			C284.3,155.5,286.4,154.1,288.1,153.2"/>
		<path class="st6" d="M282.8,157.1c0,0,0.5-7.4,0.5-7.4l-1.9,7.2l0.5,1.3L282.8,157.1"/>
		<path class="st6" d="M287.6,153.9c-1.9,1.5-4.8,3.6-6.5,5.3c0-2.6-0.3-6.5-0.5-9c0.5,2,0.9,4.8,1.6,6.5
			C283.8,156.2,285.9,154.7,287.6,153.9"/>
		<path class="st6" d="M282.3,158.3c0,0,1.9-7.2,1.9-7.2l-3.3,6.6l0.3,1.5L282.3,158.3"/>
		<path class="st6" d="M287.4,154.1c-1.8,1.7-4.6,4.3-6.1,6.2c-0.3-2.6-1.1-6.6-1.5-9.1c0.7,2,1.5,4.9,2.3,6.5
			C283.7,156.9,285.7,155.1,287.4,154.1"/>
		<path class="st6" d="M282.3,159.2c0,0,0.4-7.6,0.4-7.6l-1.9,7.4l0.6,1.4L282.3,159.2"/>
		<path class="st6" d="M286.8,155.3c-1.9,1.6-4.9,3.9-6.6,5.6c-0.1-2.7-0.5-6.8-0.8-9.3c0.5,2.1,1.1,5,1.8,6.8
			C282.9,157.8,285.1,156.2,286.8,155.3"/>
		<path class="st6" d="M281.8,160.1c0,0,2.7-7.2,2.7-7.2l-4,6.4l0.1,1.6L281.8,160.1"/>
		<path class="st6" d="M286.8,155.4c-1.7,1.8-4.3,4.4-5.8,6.3c-0.3-2.7-1-6.7-1.5-9.2c0.7,2,1.4,4.9,2.2,6.6
			C283.3,158.2,285.2,156.5,286.8,155.4"/>
		<path class="st6" d="M281.9,160.5c0,0-0.3-7.6-0.3-7.6l-1.2,7.6l0.7,1.3L281.9,160.5"/>
		<path class="st6" d="M286,155.9c-1.6,1.8-4.2,4.4-5.6,6.4c-0.3-2.7-1.2-6.7-1.7-9.2c0.7,2,1.5,4.9,2.4,6.6
			C282.5,158.8,284.5,157,286,155.9"/>
		<path class="st6" d="M281.4,161.2c0,0,0.8-7.7,0.8-7.7l-2.3,7.3l0.5,1.5L281.4,161.2"/>
		<path class="st6" d="M285.6,156.2c-1.5,1.9-3.9,4.8-5.1,6.9c-0.5-2.6-1.7-6.6-2.4-9c0.9,2,1.9,4.7,2.9,6.3
			C282.4,159.4,284.2,157.5,285.6,156.2"/>
		<path class="st6" d="M281.4,162c0,0-0.5-7.7-0.5-7.7l-1,7.7l0.7,1.4L281.4,162z"/>
		<path class="st6" d="M285.5,156.7c-1.4,2-3.6,5.1-4.8,7.2c-0.7-2.6-2.1-6.5-2.9-9c1,1.9,2.2,4.7,3.2,6.2
			C282.4,160.1,284.1,158,285.5,156.7"/>
		<path class="st6" d="M281.9,162.7c0,0,0.8-7.8,0.8-7.8l-2.2,7.3l0.5,1.5L281.9,162.7"/>
		<path class="st6" d="M285.2,157.4c-1.2,2.2-3.2,5.5-4.1,7.8c-0.9-2.5-2.6-6.2-3.7-8.5c1.1,1.8,2.6,4.3,3.8,5.7
			C282.5,161.2,283.9,158.9,285.2,157.4"/>
		<path class="st6" d="M281.6,163.3c0,0-2.2-7.4-2.2-7.4l0.7,7.8l1,1.1L281.6,163.3"/>
		<path class="st6" d="M285.1,158.3c-1.2,2.2-3.3,5.5-4.3,7.8c-0.9-2.5-2.6-6.2-3.7-8.5c1.2,1.8,2.6,4.3,3.8,5.7
			C282.3,162,283.9,159.8,285.1,158.3"/>
		<path class="st6" d="M281.7,164.7c0,0-0.8-7.7-0.8-7.7l-0.7,7.8l0.8,1.3L281.7,164.7"/>
		<path class="st6" d="M285.3,158.9c-1.3,2.2-3.4,5.4-4.4,7.7c-0.9-2.5-2.5-6.3-3.6-8.6c1.1,1.8,2.5,4.4,3.7,5.8
			C282.4,162.7,284,160.4,285.3,158.9"/>
		<path class="st6" d="M281.6,165.3c0,0-1.4-7.6-1.4-7.6l-0.1,7.8l0.9,1.2L281.6,165.3"/>
		<path class="st6" d="M284.7,160c-1.4,2.1-3.6,5.2-4.8,7.4c-0.8-2.6-2.2-6.4-3.2-8.8c1,1.9,2.3,4.6,3.5,6.1
			C281.7,163.5,283.3,161.4,284.7,160"/>
		<path class="st6" d="M281,166.2c0,0,0.6-7.8,0.6-7.8l-2.1,7.4l0.5,1.5L281,166.2"/>
		<path class="st6" d="M284.8,160.2c-1.2,2.3-3.1,5.7-4.1,8c-1-2.5-2.8-6.1-4-8.3c1.2,1.7,2.7,4.2,4,5.5
			C282.1,164.1,283.6,161.8,284.8,160.2"/>
		<path class="st6" d="M280.7,166.8c0,0-2.4-7.3-2.4-7.3l0.9,7.7l1,1L280.7,166.8"/>
		<path class="st6" d="M284.5,160.8c-0.8,2.5-2.2,6.2-2.8,8.7c-1.3-2.2-3.7-5.4-5.1-7.3c1.5,1.4,3.3,3.5,4.8,4.6
			C282.4,165.2,283.5,162.6,284.5,160.8"/>
		<path class="st6" d="M282.8,167.4c0,0-2.6-7.1-2.6-7.1l1.1,7.7l1.1,1L282.8,167.4"/>
		<path class="st6" d="M284.5,161.6c-0.8,2.5-2.2,6.3-2.7,8.7c-1.4-2.2-3.7-5.3-5.2-7.3c1.5,1.4,3.4,3.5,4.8,4.5
			C282.4,166,283.5,163.4,284.5,161.6"/>
		<path class="st6" d="M282.9,168.6c0,0-3.3-6.7-3.3-6.7l1.9,7.4l1.2,0.8L282.9,168.6"/>
		<path class="st6" d="M284.2,162.2c-0.5,2.6-1.4,6.5-1.7,9.1c-1.6-2-4.3-4.7-6-6.4c1.6,1.2,3.7,3,5.3,3.8
			C282.7,166.9,283.5,164.1,284.2,162.2"/>
		<path class="st6" d="M283.1,169.7c0,0-1.8-7.5-1.8-7.5l0.3,7.8l0.9,1.2L283.1,169.7"/>
		<path class="st6" d="M284.2,163c-0.3,2.6-0.8,6.7-0.9,9.2c-1.8-1.7-4.7-4.1-6.5-5.6c1.7,1,4,2.5,5.6,3.1
			C283.1,167.9,283.6,165,284.2,163"/>
		<path class="st6" d="M283.2,170.2c0,0-4.7-5.4-4.7-5.4l3.6,6.6l1.3,0.4L283.2,170.2"/>
		<path class="st6" d="M284.3,163.9c-0.3,2.6-0.8,6.7-0.9,9.2c-1.8-1.8-4.7-4.2-6.5-5.6c1.7,1,4,2.5,5.6,3.1
			C283.2,168.8,283.7,165.9,284.3,163.9"/>
		<path class="st6" d="M283.7,171.5c0,0-3.6-6.5-3.6-6.5l2.3,7.3l1.2,0.8L283.7,171.5"/>
		<path class="st6" d="M284.5,165c-0.2,2.6-0.6,6.7-0.5,9.3c-1.8-1.6-4.9-3.9-6.7-5.2c1.7,0.9,4.1,2.3,5.7,2.8
			C283.6,169.9,284,167,284.5,165"/>
		<path class="st6" d="M284.1,172.7c0,0-4.5-5.7-4.5-5.7l3.3,6.8l1.3,0.5L284.1,172.7"/>
		<path class="st6" d="M284.6,166.2c-0.2,2.6-0.5,6.7-0.5,9.3c-1.8-1.6-4.9-3.8-6.8-5.2c1.7,0.9,4.1,2.2,5.7,2.7
			C283.7,171.2,284.1,168.3,284.6,166.2"/>
		<path class="st6" d="M284.6,173.7c0,0-3.2-6.9-3.2-6.9l1.7,7.5l1.1,0.9L284.6,173.7"/>
		<path class="st6" d="M284.7,167c0.1,2.7,0.1,6.8,0.4,9.3c-2-1.4-5.2-3.2-7.2-4.2c1.8,0.6,4.3,1.7,5.9,1.9
			C284.3,172,284.4,169.1,284.7,167"/>
		<path class="st6" d="M285.1,173.4c0,0-5.8-3.9-5.8-3.9l4.9,5.4l1.4,0.1L285.1,173.4"/>
		<path class="st6" d="M284.9,167.3c0.2,2.6,0.5,6.7,0.9,9.3c-2.1-1.3-5.4-2.9-7.4-4c1.8,0.5,4.3,1.5,6,1.7
			C284.7,172.3,284.7,169.4,284.9,167.3"/>
		<path class="st6" d="M285.7,174.9c0,0-4.8-5.5-4.8-5.5l3.6,6.6l1.3,0.5L285.7,174.9"/>
		<path class="st6" d="M285.3,168.3c0.3,2.6,0.7,6.7,1.3,9.2c-2.1-1.2-5.5-2.6-7.6-3.5c1.9,0.4,4.4,1.2,6.1,1.3
			C285.4,173.3,285.2,170.4,285.3,168.3"/>
		<path class="st6" d="M286.7,175.8c0,0-5.7-4-5.7-4l4.8,5.5l1.4,0.1L286.7,175.8z"/>
		<path class="st6" d="M285.5,169.4c0.5,2.6,1.2,6.7,1.9,9.1c-2.2-1-5.6-2.1-7.8-2.8c1.9,0.3,4.4,0.8,6.1,0.8
			C285.9,174.4,285.5,171.5,285.5,169.4"/>
		<path class="st6" d="M287.3,176.6c0,0-4.7-5.6-4.7-5.6l3.5,6.7l1.3,0.5L287.3,176.6"/>
		<path class="st6" d="M285.8,170.1c0.8,2.5,1.8,6.5,2.7,8.8c-2.2-0.7-5.8-1.3-7.9-1.8c1.9,0,4.5,0.2,6.1-0.1
			C286.7,175.1,286,172.3,285.8,170.1"/>
		<path class="st6" d="M287.6,176.6c0,0.1-6.6-1.4-6.6-1.4l6.3,3.1l1.3-0.5L287.6,176.6"/>
		<path class="st6" d="M286.2,170.9c0.7,2.5,1.8,6.5,2.7,8.9c-2.2-0.7-5.8-1.4-7.9-1.8c1.9,0,4.5,0.3,6.1,0
			C287.1,175.9,286.5,173,286.2,170.9"/>
		<path class="st6" d="M288.6,177.3c0,0-6.3-3.1-6.3-3.1l5.7,4.6l1.4-0.1L288.6,177.3"/>
		<path class="st6" d="M285.9,171.4c1.3,2.3,3.1,5.9,4.5,8.1c-2.3-0.2-5.9,0-8.1,0c1.8-0.4,4.4-0.8,6-1.4
			C287.8,176,286.6,173.4,285.9,171.4"/>
		<path class="st6" d="M289.6,178c0,0.1-6.6-1.8-6.6-1.8l6.2,3.5l1.3-0.4L289.6,178"/>
		<path class="st6" d="M286.6,172.3c1.3,2.3,3.1,5.9,4.5,8c-2.3-0.2-5.9,0-8.1,0.1c1.8-0.4,4.4-0.8,6-1.5
			C288.5,177,287.3,174.4,286.6,172.3"/>
		<path class="st6" d="M290.5,178.5c0,0-6.1-3.7-6.1-3.7l5.3,5.1l1.4,0L290.5,178.5"/>
		<path class="st6" d="M287.1,172.9c1.5,2.1,3.6,5.6,5.2,7.5c-2.3,0.1-5.8,0.8-7.9,1.2c1.8-0.7,4.2-1.4,5.7-2.3
			C289.4,177.3,288,174.9,287.1,172.9"/>
		<path class="st6" d="M290.9,179.1c0,0.1-6.6-0.2-6.6-0.2l6.5,1.9l1.2-0.7L290.9,179.1"/>
		<path class="st6" d="M294.8,147.1c0,0,4.8-0.8,4.8-0.8l-4.7,0.1l-0.8,0.4L294.8,147.1"/>
		<path class="st6" d="M297.4,148.1c-1.4-0.4-3.5-1.1-4.9-1.4c1.5-0.6,3.7-1.7,5.1-2.3c-1.1,0.7-2.6,1.5-3.4,2.2
			C295,147,296.4,147.6,297.4,148.1"/>
		<path class="st6" d="M294.5,147.2c0,0,4.6-1.3,4.6-1.3l-4.8,0.6l-0.7,0.5L294.5,147.2"/>
		<path class="st6" d="M297.6,148.4c-1.6-0.2-4.1-0.5-5.7-0.5c1.2-1.1,2.9-2.8,3.9-3.9c-0.7,1-1.8,2.4-2.3,3.4
			C294.6,147.8,296.4,148.1,297.6,148.4"/>
		<path class="st6" d="M292.8,147.6c0,0,4.8-0.5,4.8-0.5l-4.7-0.1l-0.9,0.4L292.8,147.6"/>
		<path class="st6" d="M296.4,148.6c-1.5-0.3-3.7-0.8-5.2-0.9c1.4-0.7,3.5-1.9,4.7-2.6c-0.9,0.7-2.3,1.6-3,2.3
			C293.8,147.8,295.3,148.2,296.4,148.6"/>
		<path class="st6" d="M292.4,147.5c0,0,4.2-1.8,4.2-1.8l-4.6,1.2l-0.6,0.6L292.4,147.5"/>
		<path class="st6" d="M296.2,149.1c-1.2-0.5-3.1-1.4-4.3-1.7c0.9-0.9,2.3-2.4,3.1-3.3c-0.6,0.9-1.4,2.1-1.8,3.1
			C294,147.8,295.3,148.5,296.2,149.1"/>
		<path class="st6" d="M292.7,147.8c0,0,3.3-1.4,3.3-1.4l-3.6,0.5l-0.4,0.6L292.7,147.8"/>
		<path class="st6" d="M289.9,178.5c0,0.1-6.8,0.1-6.8,0.1l6.9,1.7l1.1-0.7L289.9,178.5"/>
		<path class="st6" d="M291.1,178.9c0,0-6.9-1.6-6.9-1.6l6.6,3.2l1.3-0.4L291.1,178.9"/>
		<path class="st6" d="M292.3,179.4c0,0.1-6.8-0.3-6.8-0.3l6.8,2.1l1.2-0.7L292.3,179.4"/>
		<path class="st6" d="M287.9,174.5c1.8,2,4.4,5.1,6.3,6.8c-2.3,0.3-5.8,1.3-7.9,1.8c1.7-0.8,4.1-1.7,5.5-2.7
			C290.9,178.6,289.1,176.3,287.9,174.5"/>
		<path class="st6" d="M293.2,179.7c0,0-6.8-2.2-6.8-2.2l6.4,3.8l1.3-0.3L293.2,179.7"/>
		<path class="st6" d="M288.6,175c1.9,1.8,4.9,4.6,6.9,6.1c-2.2,0.6-5.5,2-7.5,2.8c1.6-1,3.8-2.3,5-3.4
			C291.9,178.8,289.9,176.7,288.6,175"/>
		<path class="st6" d="M293.8,180.1c0,0.1-6.5,1.3-6.5,1.3l6.8,0.5l1-1L293.8,180.1"/>
		<path class="st6" d="M292.4,179.7c0,0.1-6.8,0.5-6.8,0.5l7,1.2l1.1-0.8L292.4,179.7"/>
		<path class="st6" d="M293.7,180.1c0,0.1-7-1.1-7-1.1l6.8,2.8l1.3-0.5L293.7,180.1L293.7,180.1z"/>
		<path class="st6" d="M294.8,180.5c0,0.1-6.9,0.1-6.9,0.1l7,1.6l1.1-0.7L294.8,180.5z"/>
		<path class="st6" d="M290.1,175.9c1.9,1.8,4.8,4.8,6.8,6.4c-2.3,0.5-5.7,1.7-7.7,2.4c1.6-0.9,4-2,5.3-3.1
			C293.4,179.8,291.4,177.7,290.1,175.9L290.1,175.9z"/>
		<path class="st6" d="M295.8,180.7c0,0-7-1.8-7-1.8l6.7,3.4l1.3-0.4L295.8,180.7L295.8,180.7z"/>
		<path class="st6" d="M290.8,176.3c2.1,1.6,5.2,4.3,7.3,5.6c-2.1,0.8-5.3,2.4-7.3,3.3c1.5-1.1,3.6-2.5,4.8-3.8
			C294.4,179.9,292.3,177.9,290.8,176.3L290.8,176.3z"/>
		<path class="st6" d="M296.4,181.1c0,0.1-6.4,1.7-6.4,1.7l6.9,0l0.9-1L296.4,181.1L296.4,181.1z"/>
	</g>
	<path class="st7" d="M305.2,171.5l-5.2-3.6l-5.2,3.6l2-5.8l-4.6-3.6h5.9l2-5.8l2,5.8h5.9l-4.6,3.6L305.2,171.5L305.2,171.5z"/>
</g>
</svg>
