<?xml version="1.0" encoding="UTF-8"?><svg id="b" xmlns="http://www.w3.org/2000/svg" width="57.6" height="38.12" viewBox="0 0 57.6 38.12"><g id="c"><g id="d"><path d="M18.29,0c-1.68.21-3.36.46-5.03.76-.8.14-1.47.71-1.74,1.48,0,0-4.97,8.05-5.17,7.68-.15-.27-.66-.48-1.09-.48H1.52c-.43,0-.95.21-1.09.48-.57,1.05-.57,1.65,0,2.7.15.27.66.48,1.09.48l3.14,1.12c0,.07,0,.14.01.21-1.21.37-2.09,1.49-2.09,2.82v19.45c0,.78.63,1.42,1.42,1.42h7.12c.78,0,1.42-.63,1.42-1.42v-3.42l2.31.78c.07.05.16.08.25.08h27.25c.18,0,.36-.05.51-.16l2.19-.7v3.42c0,.78.63,1.42,1.42,1.42h7.12c.78,0,1.42-.63,1.42-1.42v-19.45c0-1.33-.88-2.45-2.09-2.82,0-.07.01-.14.01-.21l3.14-1.12c.43,0,.95-.21,1.09-.48.57-1.05.57-1.65,0-2.7-.15-.27-.66-.48-1.09-.48h-3.73c-.43,0-.95.21-1.09.48-.2.37-5.17-7.67-5.17-7.67-.27-.77-.94-1.33-1.74-1.48-1.67-.3-3.35-.56-5.03-.76h-21.03ZM39.42,3.12c2.53.38,3.51.79,3.51.79l5.02,10.31s-9.54.56-19.15.56-19.15-.56-19.15-.56L14.67,3.91s.97-.41,3.51-.79h21.24ZM8.43,23.09v-3.99h8.65l2.57,3.99h-11.22ZM49.17,23.09h-11.22l2.57-3.99h8.65v3.99Z" fill="#f9893c"/></g></g></svg>
